<mxfile host="app.diagrams.net" modified="2023-10-10T02:05:16.540Z" agent="Mozilla/5.0 (Windows NT 10.0; Win64; x64) AppleWebKit/537.36 (KHTML, like Gecko) Chrome/117.0.0.0 Safari/537.36" version="21.7.2" etag="JvxaAMHdm7u3QLGlPNlV" type="github">
  <diagram name="PÃ¡gina-1" id="F4dMy6gigTSSq5dXtoJS">
    <mxGraphModel>
      <root>
        <mxCell id="0" />
        <mxCell id="1" parent="0" />
      </root>
    </mxGraphModel>
  </diagram>
</mxfile>
